<?xml version="1.0" encoding="utf-8"?>
<!-- Generator: Adobe Illustrator 13.0.0, SVG Export Plug-In . SVG Version: 6.00 Build 14948)  -->
<!DOCTYPE svg PUBLIC "-//W3C//DTD SVG 1.1//EN" "http://www.w3.org/Graphics/SVG/1.1/DTD/svg11.dtd">
<svg version="1.1" id="Layer_1" xmlns="http://www.w3.org/2000/svg" xmlns:xlink="http://www.w3.org/1999/xlink" x="0px" y="0px"
	 width="95.5px" height="24.25px" viewBox="0 0 95.5 24.25" enable-background="new 0 0 95.5 24.25" xml:space="preserve">
<g>
	<g>
		<g>
			
				<linearGradient id="SVGID_1_" gradientUnits="userSpaceOnUse" x1="191.46" y1="-29.1948" x2="191.46" y2="-44.9131" gradientTransform="matrix(1 0 0 -1 -142.8989 -23.874)">
				<stop  offset="0" style="stop-color:#EF4137"/>
				<stop  offset="0.0215" style="stop-color:#EF403E"/>
				<stop  offset="0.1075" style="stop-color:#EF3B55"/>
				<stop  offset="0.1726" style="stop-color:#EE3762"/>
				<stop  offset="0.2088" style="stop-color:#EE3666"/>
				<stop  offset="1" style="stop-color:#E42370"/>
			</linearGradient>
			<path fill="url(#SVGID_1_)" d="M20.68,16.771c-0.07-0.104-0.126-0.194-0.17-0.273c-0.044-0.079-0.082-0.155-0.114-0.229
				c-0.032-0.072-0.071-0.158-0.118-0.254c-0.35-0.785-0.562-1.348-0.638-1.688c-0.023-0.061-0.073-0.204-0.148-0.43
				c-0.075-0.224-0.164-0.491-0.266-0.801c-0.102-0.312-0.213-0.642-0.332-0.995c-0.119-0.352-0.233-0.686-0.34-1.002
				c-0.108-0.316-0.201-0.591-0.279-0.825c-0.079-0.234-0.129-0.387-0.153-0.46c-0.116-0.322-0.24-0.647-0.371-0.975
				c-0.13-0.328-0.266-0.647-0.406-0.958c0.012-0.134,0.019-0.24,0.022-0.319c0.003-0.079,0.007-0.158,0.013-0.237
				c0.006-0.079,0.009-0.171,0.009-0.278V6.606c0-0.2-0.013-0.368-0.039-0.501s-0.076-0.241-0.148-0.323
				c-0.073-0.082-0.176-0.14-0.31-0.173c-0.134-0.033-0.309-0.05-0.524-0.05c-0.494,0-1.088,0.884-1.78,2.653
				c-0.029,0.079-0.072,0.174-0.127,0.287c-0.055,0.113-0.118,0.233-0.188,0.36s-0.143,0.26-0.218,0.397
				c-0.076,0.136-0.155,0.27-0.236,0.404c-0.186,0.31-0.384,0.635-0.593,0.976c-0.175,0.243-0.397,0.548-0.667,0.916
				c-0.271,0.368-0.586,0.816-0.947,1.345c-0.14,0.207-0.258,0.381-0.354,0.521c-0.095,0.14-0.187,0.276-0.274,0.41
				s-0.179,0.276-0.275,0.428c-0.096,0.152-0.22,0.345-0.371,0.575v-0.01c-0.297,0.461-0.569,0.871-0.816,1.226
				s-0.484,0.698-0.711,1.026c-0.035,0.055-0.094,0.135-0.178,0.242c-0.085,0.105-0.171,0.213-0.258,0.324
				c-0.087,0.108-0.163,0.206-0.227,0.291c-0.064,0.086-0.096,0.131-0.096,0.137c-0.297,0.055-0.53,0.123-0.698,0.205
				c-0.169,0.082-0.253,0.227-0.253,0.433c0,0.108,0.036,0.228,0.109,0.354c0.073,0.127,0.181,0.248,0.323,0.355
				c0.143,0.109,0.318,0.199,0.528,0.27c0.209,0.069,0.448,0.104,0.715,0.104c0.204,0,0.4-0.045,0.589-0.138
				c0.189-0.09,0.368-0.225,0.537-0.4c0.174-0.177,0.36-0.389,0.558-0.634c0.198-0.247,0.407-0.537,0.628-0.871
				c0.192-0.292,0.341-0.517,0.445-0.675s0.183-0.275,0.235-0.352c0.053-0.076,0.093-0.123,0.123-0.142
				c0.029-0.019,0.064-0.03,0.104-0.036c0.373-0.066,0.743-0.132,1.113-0.196c0.369-0.063,0.731-0.127,1.086-0.192
				c0.354-0.063,0.695-0.129,1.021-0.195c0.326-0.066,0.629-0.137,0.908-0.209c0.087-0.023,0.179-0.055,0.275-0.087
				c0.096-0.033,0.189-0.065,0.279-0.095c0.09-0.031,0.17-0.057,0.24-0.078s0.119-0.032,0.149-0.032
				c0.162,0,0.311-0.004,0.445-0.015c0.133-0.008,0.259-0.041,0.375-0.096c0.012,0.043,0.021,0.075,0.03,0.096
				c0.009,0.021,0.021,0.05,0.035,0.082c0.015,0.035,0.033,0.082,0.053,0.143s0.051,0.152,0.091,0.273
				c0.07,0.219,0.137,0.397,0.201,0.537c0.064,0.141,0.128,0.293,0.192,0.457c0.047,0.115,0.107,0.26,0.184,0.438
				c0.075,0.176,0.162,0.361,0.257,0.557c0.096,0.194,0.204,0.387,0.323,0.578c0.119,0.192,0.244,0.363,0.375,0.516
				c0.131,0.151,0.266,0.275,0.406,0.373c0.139,0.098,0.282,0.146,0.427,0.146c0.157,0,0.304-0.031,0.441-0.091
				c0.136-0.062,0.253-0.142,0.349-0.242s0.171-0.217,0.227-0.351c0.055-0.135,0.083-0.277,0.083-0.43
				c0-0.268-0.201-0.687-0.603-1.258C20.842,17.008,20.75,16.874,20.68,16.771z M16.512,13.626
				c-0.265,0.073-0.525,0.144-0.781,0.209c-0.174,0.036-0.329,0.07-0.462,0.101c-0.134,0.03-0.263,0.061-0.389,0.09
				c-0.125,0.031-0.25,0.064-0.375,0.101s-0.266,0.08-0.423,0.127c-0.117,0.037-0.271,0.06-0.462,0.069
				c-0.192,0.008-0.376,0.021-0.55,0.041c0.448-0.809,0.921-1.603,1.418-2.379c0.497-0.777,0.994-1.519,1.488-2.224
				c0.122,0.249,0.238,0.524,0.349,0.825c0.11,0.301,0.22,0.611,0.327,0.93c0.108,0.319,0.211,0.64,0.31,0.961
				c0.099,0.322,0.195,0.631,0.289,0.93C17.022,13.48,16.776,13.553,16.512,13.626z M37.05,18.016
				c-0.283-0.191-0.592-0.406-0.93-0.644c-0.355-0.255-0.68-0.489-0.973-0.702c-0.294-0.212-0.563-0.406-0.808-0.583
				c-0.244-0.176-0.505-0.368-0.781-0.573c-0.277-0.207-0.575-0.426-0.895-0.658c-0.215-0.151-0.416-0.297-0.602-0.438
				c-0.187-0.141-0.373-0.279-0.559-0.419c0.587-0.334,1.125-0.683,1.615-1.044c0.489-0.361,0.922-0.786,1.3-1.271
				c0.448-0.59,0.672-1.188,0.672-1.796c0-0.936-0.314-1.699-0.943-2.289c-0.285-0.273-0.608-0.507-0.969-0.702
				c-0.361-0.194-0.757-0.349-1.188-0.464c-0.82-0.219-1.672-0.329-2.557-0.329c-0.256,0-0.547,0.017-0.873,0.05
				c-0.326,0.034-0.669,0.078-1.03,0.132c-0.378,0.061-0.725,0.125-1.039,0.192c-0.314,0.066-0.585,0.136-0.812,0.209
				c-0.203,0.067-0.409,0.143-0.615,0.228C24.856,7,24.651,7.095,24.448,7.198c-0.524,0.268-0.786,0.559-0.786,0.875
				c0,0.28,0.051,0.497,0.153,0.652c0.102,0.154,0.307,0.232,0.615,0.232c0.047,0,0.134-0.014,0.262-0.041
				c0.127-0.027,0.285-0.068,0.471-0.123c0.035,0.347,0.06,0.679,0.074,0.998c0.014,0.32,0.021,0.625,0.021,0.917
				c0,0.383-0.023,0.805-0.069,1.268c-0.047,0.461-0.108,0.942-0.184,1.44c-0.023,0.164-0.043,0.309-0.061,0.434
				c-0.018,0.123-0.033,0.239-0.048,0.346s-0.03,0.207-0.048,0.306s-0.041,0.201-0.07,0.31c-0.046,0.25-0.089,0.5-0.126,0.752
				c-0.038,0.254-0.071,0.516-0.101,0.789c-0.035,0.311-0.052,0.633-0.052,0.967c0,0.23,0.004,0.438,0.013,0.619
				c0.009,0.184,0.027,0.348,0.057,0.494c0.053,0.291,0.201,0.547,0.445,0.766c0.215,0.207,0.559,0.31,1.03,0.31
				c0.092,0,0.192-0.021,0.296-0.06s0.208-0.092,0.31-0.159s0.197-0.144,0.288-0.228c0.09-0.086,0.164-0.177,0.223-0.273
				c-0.1-0.17-0.182-0.334-0.249-0.493c-0.067-0.158-0.119-0.317-0.157-0.478c-0.038-0.162-0.065-0.327-0.083-0.498
				c-0.017-0.17-0.026-0.349-0.026-0.537c0-0.207,0.008-0.426,0.022-0.657s0.036-0.468,0.065-0.711
				c0.029-0.255,0.066-0.548,0.113-0.88c0.046-0.331,0.104-0.713,0.175-1.145c0.087-0.504,0.157-0.915,0.209-1.229
				c0.052-0.322,0.087-0.645,0.105-0.967c0.011-0.158,0.019-0.319,0.022-0.483c0.002-0.164,0.004-0.337,0.004-0.52
				c0-0.158-0.007-0.336-0.021-0.534c-0.015-0.197-0.048-0.415-0.1-0.651c-0.03-0.152-0.062-0.292-0.096-0.419
				c-0.035-0.128-0.076-0.249-0.122-0.365c0.104-0.024,0.188-0.042,0.249-0.055c0.061-0.013,0.115-0.022,0.162-0.032
				c0.046-0.009,0.093-0.017,0.14-0.023c0.046-0.006,0.11-0.015,0.191-0.027c0.175-0.03,0.356-0.056,0.546-0.078
				c0.189-0.021,0.382-0.043,0.581-0.068c0.215-0.024,0.41-0.043,0.584-0.055c0.175-0.012,0.32-0.018,0.437-0.018
				c0.39,0,0.786,0.061,1.187,0.182c0.204,0.061,0.42,0.149,0.65,0.264c0.23,0.116,0.442,0.253,0.637,0.411
				c0.195,0.158,0.356,0.334,0.484,0.528c0.128,0.195,0.192,0.399,0.192,0.611c0,0.14-0.031,0.281-0.092,0.424
				c-0.061,0.142-0.158,0.284-0.292,0.423c-0.169,0.177-0.339,0.34-0.511,0.492c-0.172,0.152-0.348,0.292-0.528,0.419
				c-0.203,0.14-0.405,0.274-0.606,0.401c-0.201,0.127-0.394,0.24-0.58,0.337c-0.128,0.067-0.261,0.139-0.397,0.214
				c-0.137,0.077-0.279,0.146-0.428,0.21c-0.148,0.063-0.301,0.116-0.458,0.159c-0.157,0.041-0.32,0.063-0.489,0.063
				c-0.087,0.006-0.154,0.015-0.201,0.022c-0.046,0.01-0.083,0.016-0.109,0.019s-0.051,0.007-0.074,0.015
				c-0.023,0.004-0.058,0.015-0.104,0.026c-0.186,0.067-0.329,0.17-0.428,0.31c-0.099,0.141-0.148,0.319-0.148,0.539
				c0,0.449,0.177,0.806,0.533,1.066c0.151-0.012,0.271-0.021,0.362-0.027c0.09-0.006,0.163-0.01,0.218-0.014
				c0.056-0.003,0.104-0.005,0.145-0.005h0.122c0.18,0,0.304,0.001,0.372,0.005c0.066,0.003,0.135,0.02,0.205,0.05
				c0.035,0.019,0.178,0.126,0.428,0.323c0.25,0.198,0.585,0.47,1.004,0.816c0.454,0.375,0.817,0.676,1.091,0.896
				c0.273,0.223,0.457,0.369,0.55,0.441c0.384,0.312,0.725,0.576,1.021,0.799c0.297,0.222,0.541,0.398,0.733,0.533
				c0.389,0.272,0.753,0.483,1.091,0.633c0.337,0.148,0.681,0.223,1.03,0.223c0.151,0,0.301-0.018,0.45-0.055
				c0.148-0.036,0.281-0.088,0.397-0.155c0.168-0.091,0.299-0.2,0.393-0.328c0.093-0.127,0.143-0.271,0.148-0.428l-0.157-0.228
				C37.566,18.363,37.332,18.207,37.05,18.016z M47.969,8.211c0.189-0.019,0.356-0.027,0.501-0.027c0.228,0,0.426,0.001,0.598,0.004
				s0.336,0.007,0.494,0.014c0.156,0.006,0.317,0.011,0.483,0.014S50.4,8.22,50.609,8.22c0.093,0,0.189-0.011,0.291-0.032
				c0.103-0.021,0.197-0.064,0.285-0.127c0.088-0.064,0.158-0.152,0.213-0.265c0.057-0.112,0.084-0.263,0.084-0.451
				c0-0.061-0.016-0.138-0.043-0.232c-0.029-0.094-0.072-0.19-0.127-0.287c-0.056-0.098-0.121-0.186-0.197-0.265
				c-0.075-0.079-0.162-0.134-0.262-0.165c-0.129-0.042-0.267-0.076-0.414-0.1c-0.148-0.024-0.291-0.042-0.424-0.055
				c-0.135-0.013-0.254-0.02-0.358-0.023c-0.104-0.003-0.181-0.005-0.228-0.005c-0.365,0-0.736,0.026-1.111,0.078
				c-0.375,0.052-0.752,0.117-1.131,0.196c-0.378,0.08-0.756,0.162-1.135,0.247c-0.378,0.085-0.756,0.164-1.134,0.237
				c-0.104,0.018-0.271,0.046-0.498,0.082c-0.227,0.037-0.484,0.076-0.772,0.119s-0.591,0.086-0.908,0.132
				c-0.317,0.046-0.614,0.087-0.89,0.124c-0.276,0.037-0.518,0.067-0.725,0.091c-0.207,0.025-0.348,0.037-0.423,0.037
				c-0.401,0-0.803,0.023-1.205,0.068s-0.766,0.111-1.091,0.196c-0.14,0.037-0.255,0.085-0.345,0.146
				c-0.091,0.061-0.159,0.132-0.205,0.214c-0.047,0.082-0.079,0.172-0.096,0.269c-0.017,0.097-0.026,0.197-0.026,0.3
				c0,0.062,0.001,0.1,0.004,0.115c0.003,0.015,0.01,0.047,0.022,0.095c0,0.134,0.052,0.242,0.157,0.324s0.227,0.146,0.367,0.191
				c0.14,0.045,0.282,0.076,0.428,0.091s0.259,0.023,0.34,0.023c0.396,0,0.815-0.024,1.257-0.073c0.442-0.048,0.873-0.1,1.292-0.155
				c0.332-0.042,0.64-0.081,0.925-0.114c0.285-0.034,0.521-0.05,0.707-0.05c-0.012,0.134-0.037,0.361-0.074,0.684
				c-0.037,0.323-0.082,0.701-0.131,1.135c-0.05,0.435-0.101,0.899-0.153,1.395c-0.052,0.495-0.1,0.98-0.144,1.458
				c-0.043,0.478-0.08,0.924-0.109,1.34c-0.03,0.417-0.044,0.761-0.044,1.035c0,0.164,0.003,0.348,0.009,0.552
				c0.005,0.204,0.018,0.41,0.035,0.62c0.017,0.209,0.041,0.415,0.069,0.615c0.029,0.2,0.07,0.377,0.123,0.528
				c0.046,0.135,0.11,0.26,0.192,0.379c0.082,0.117,0.175,0.222,0.279,0.31s0.212,0.158,0.323,0.209
				c0.111,0.052,0.215,0.078,0.314,0.078c0.151,0,0.286-0.038,0.406-0.114c0.119-0.076,0.22-0.175,0.301-0.296
				c0.082-0.121,0.144-0.258,0.188-0.41c0.044-0.151,0.065-0.301,0.065-0.446c0-0.013-0.008-0.095-0.026-0.246
				c-0.017-0.152-0.038-0.328-0.061-0.529c-0.023-0.2-0.044-0.402-0.062-0.606c-0.017-0.202-0.026-0.36-0.026-0.469
				c0-0.802,0.04-1.615,0.118-2.438c0.079-0.823,0.162-1.662,0.249-2.512l0.227-2.188c0-0.085,0.016-0.184,0.048-0.296
				c0.032-0.112,0.068-0.181,0.109-0.205c0.058-0.036,0.153-0.078,0.284-0.123c0.131-0.045,0.284-0.089,0.458-0.132
				c0.174-0.042,0.363-0.085,0.567-0.127c0.204-0.043,0.407-0.08,0.611-0.11C47.582,8.256,47.78,8.229,47.969,8.211z M60.611,16.771
				c-0.069-0.104-0.127-0.194-0.17-0.273s-0.082-0.155-0.113-0.229c-0.032-0.072-0.071-0.158-0.118-0.254
				c-0.351-0.785-0.562-1.348-0.638-1.688c-0.023-0.061-0.073-0.204-0.148-0.43c-0.074-0.224-0.164-0.491-0.266-0.801
				c-0.102-0.312-0.213-0.642-0.332-0.995c-0.119-0.352-0.233-0.686-0.342-1.002c-0.106-0.316-0.199-0.591-0.278-0.825
				c-0.078-0.234-0.129-0.387-0.151-0.46c-0.117-0.322-0.24-0.647-0.371-0.975c-0.131-0.328-0.267-0.647-0.406-0.958
				c0.011-0.134,0.019-0.24,0.021-0.319c0.004-0.079,0.008-0.158,0.014-0.237c0.004-0.079,0.008-0.171,0.008-0.278V6.606
				c0-0.2-0.014-0.368-0.039-0.501c-0.026-0.133-0.076-0.241-0.148-0.323s-0.176-0.14-0.31-0.173c-0.134-0.033-0.31-0.05-0.524-0.05
				c-0.494,0-1.088,0.884-1.779,2.653c-0.031,0.079-0.072,0.174-0.127,0.287c-0.056,0.113-0.119,0.233-0.188,0.36
				c-0.07,0.127-0.144,0.26-0.218,0.397c-0.076,0.137-0.154,0.271-0.236,0.405c-0.186,0.31-0.384,0.635-0.593,0.976
				c-0.175,0.243-0.397,0.548-0.669,0.916c-0.271,0.368-0.586,0.816-0.946,1.346c-0.14,0.207-0.258,0.379-0.354,0.52
				c-0.096,0.141-0.188,0.275-0.274,0.41c-0.087,0.134-0.179,0.277-0.274,0.428c-0.096,0.152-0.22,0.344-0.371,0.575V14.82
				c-0.297,0.461-0.568,0.871-0.815,1.226c-0.248,0.354-0.485,0.698-0.711,1.026c-0.035,0.055-0.095,0.135-0.179,0.242
				c-0.084,0.106-0.17,0.213-0.258,0.324c-0.086,0.108-0.163,0.206-0.227,0.291c-0.064,0.086-0.096,0.131-0.096,0.137
				c-0.296,0.055-0.529,0.123-0.698,0.205c-0.168,0.082-0.253,0.227-0.253,0.433c0,0.108,0.036,0.228,0.109,0.354
				c0.073,0.127,0.18,0.248,0.323,0.355c0.142,0.109,0.318,0.199,0.528,0.27c0.209,0.069,0.448,0.104,0.716,0.104
				c0.204,0,0.4-0.045,0.589-0.138c0.188-0.09,0.368-0.225,0.537-0.4c0.175-0.177,0.36-0.389,0.56-0.634
				c0.197-0.247,0.406-0.537,0.629-0.871c0.19-0.292,0.34-0.517,0.443-0.675c0.105-0.158,0.184-0.275,0.236-0.352
				s0.093-0.123,0.123-0.142c0.029-0.019,0.064-0.03,0.104-0.036c0.373-0.066,0.743-0.132,1.113-0.196
				c0.369-0.063,0.73-0.127,1.086-0.192c0.354-0.063,0.695-0.129,1.021-0.195s0.627-0.137,0.908-0.209
				c0.086-0.023,0.178-0.055,0.274-0.087c0.097-0.033,0.188-0.065,0.278-0.095c0.091-0.031,0.17-0.057,0.24-0.078
				c0.069-0.021,0.119-0.032,0.148-0.032c0.163,0,0.311-0.004,0.445-0.015c0.134-0.008,0.259-0.041,0.375-0.096
				c0.012,0.043,0.021,0.075,0.031,0.096c0.008,0.021,0.02,0.05,0.034,0.082c0.015,0.035,0.032,0.082,0.052,0.143
				c0.021,0.061,0.051,0.152,0.092,0.273c0.07,0.219,0.138,0.397,0.201,0.537c0.063,0.141,0.129,0.293,0.191,0.457
				c0.047,0.115,0.107,0.26,0.184,0.438c0.076,0.176,0.162,0.361,0.258,0.557c0.097,0.194,0.205,0.387,0.324,0.578
				c0.119,0.192,0.244,0.363,0.375,0.516c0.131,0.151,0.266,0.275,0.405,0.373s0.282,0.146,0.429,0.146
				c0.156,0,0.304-0.031,0.44-0.091c0.138-0.062,0.253-0.142,0.349-0.242s0.172-0.217,0.228-0.351
				c0.055-0.135,0.083-0.277,0.083-0.43c0-0.268-0.201-0.687-0.602-1.258C60.775,17.008,60.682,16.874,60.611,16.771z
				 M56.443,13.626c-0.264,0.073-0.524,0.144-0.78,0.209c-0.175,0.036-0.329,0.07-0.462,0.101c-0.135,0.03-0.264,0.061-0.389,0.09
				c-0.125,0.031-0.25,0.064-0.375,0.101s-0.267,0.08-0.424,0.127c-0.117,0.037-0.271,0.06-0.463,0.069
				c-0.191,0.008-0.376,0.021-0.55,0.041c0.448-0.809,0.921-1.603,1.418-2.379s0.994-1.519,1.488-2.224
				c0.122,0.249,0.239,0.524,0.349,0.825c0.111,0.301,0.221,0.611,0.328,0.93c0.107,0.319,0.211,0.64,0.311,0.961
				c0.099,0.322,0.194,0.631,0.289,0.93C56.955,13.48,56.709,13.553,56.443,13.626z M75.503,5.804
				c-0.163-0.152-0.349-0.271-0.556-0.355c-0.205-0.085-0.42-0.128-0.641-0.128c-0.344,0-0.668,0.019-0.978,0.055
				c-0.31,0.037-0.613,0.088-0.913,0.155c-0.3,0.067-0.604,0.152-0.912,0.255c-0.309,0.104-0.635,0.222-0.979,0.355
				c-0.319,0.127-0.641,0.271-0.959,0.429c-0.32,0.158-0.631,0.328-0.935,0.511c-0.303,0.182-0.591,0.372-0.864,0.569
				c-0.273,0.198-0.521,0.394-0.742,0.588c-0.313,0.279-0.643,0.597-0.985,0.952c-0.343,0.356-0.679,0.731-1.003,1.126
				c-0.78,0.948-1.362,1.891-1.746,2.827c-0.385,0.936-0.577,1.842-0.577,2.717c0,0.442,0.112,0.859,0.336,1.248
				c0.224,0.39,0.528,0.729,0.912,1.018s0.833,0.516,1.349,0.68c0.515,0.164,1.063,0.246,1.646,0.246s1.101-0.05,1.558-0.15
				c0.457-0.1,0.883-0.237,1.274-0.414c0.394-0.176,0.769-0.383,1.13-0.62c0.359-0.237,0.736-0.493,1.126-0.767
				c-0.06,0.158-0.134,0.357-0.228,0.598c-0.092,0.24-0.184,0.482-0.271,0.729s-0.163,0.479-0.228,0.697
				c-0.063,0.219-0.096,0.389-0.096,0.511c0,0.212,0.016,0.405,0.049,0.579c0.031,0.173,0.09,0.32,0.174,0.442
				s0.195,0.216,0.332,0.282c0.136,0.067,0.31,0.102,0.519,0.102c0.181,0,0.349-0.032,0.502-0.096
				c0.154-0.064,0.288-0.154,0.401-0.27s0.201-0.25,0.266-0.4c0.064-0.151,0.096-0.316,0.096-0.492c0-0.036-0.013-0.073-0.039-0.109
				c-0.025-0.036-0.054-0.074-0.082-0.113c-0.029-0.041-0.058-0.082-0.084-0.129c-0.025-0.045-0.039-0.096-0.039-0.149
				c0-0.146,0.025-0.357,0.078-0.634c0.054-0.275,0.121-0.57,0.205-0.883c0.084-0.313,0.176-0.625,0.275-0.936
				s0.191-0.574,0.279-0.793c0.012-0.03,0.048-0.107,0.109-0.232c0.061-0.123,0.131-0.271,0.213-0.441
				c0.082-0.17,0.168-0.354,0.262-0.551c0.092-0.199,0.179-0.381,0.257-0.553c0.078-0.17,0.144-0.314,0.192-0.432
				c0.049-0.119,0.074-0.188,0.074-0.206c-0.007-0.091-0.055-0.205-0.145-0.343c-0.092-0.137-0.206-0.269-0.346-0.396
				c-0.14-0.127-0.297-0.236-0.476-0.328c-0.177-0.091-0.358-0.137-0.545-0.137c-0.728,0-1.091,0.198-1.091,0.593
				c0,0.043,0.007,0.099,0.021,0.169c0.014,0.069,0.029,0.141,0.043,0.215c0.015,0.072,0.029,0.146,0.043,0.219
				c0.016,0.072,0.022,0.137,0.022,0.191c0,0.098-0.051,0.223-0.153,0.379c-0.102,0.153-0.22,0.313-0.354,0.474
				c-0.135,0.161-0.271,0.31-0.41,0.446c-0.139,0.138-0.247,0.236-0.323,0.297c-0.296,0.225-0.625,0.438-0.985,0.638
				s-0.731,0.375-1.113,0.524c-0.381,0.148-0.762,0.266-1.139,0.351c-0.379,0.085-0.736,0.128-1.073,0.128
				c-0.181,0-0.394-0.02-0.638-0.061c-0.246-0.039-0.478-0.109-0.699-0.213c-0.221-0.104-0.408-0.246-0.563-0.425
				s-0.23-0.409-0.23-0.688c0-0.285,0.021-0.571,0.064-0.86c0.045-0.289,0.104-0.567,0.18-0.839s0.164-0.523,0.266-0.762
				c0.102-0.236,0.211-0.445,0.328-0.627c0.302-0.469,0.652-0.936,1.052-1.404c0.397-0.468,0.813-0.888,1.244-1.259
				c0.442-0.383,0.896-0.73,1.362-1.043c0.465-0.313,0.951-0.582,1.457-0.807c0.535-0.237,1.012-0.401,1.427-0.492
				c0.416-0.091,0.78-0.137,1.096-0.137c0.099,0,0.192,0.034,0.283,0.1c0.09,0.067,0.187,0.139,0.289,0.215
				c0.103,0.076,0.214,0.147,0.336,0.214c0.122,0.067,0.259,0.1,0.409,0.1c0.367,0,0.646-0.096,0.839-0.287s0.288-0.454,0.288-0.789
				c0-0.231-0.049-0.445-0.145-0.643C75.795,6.131,75.666,5.956,75.503,5.804z M89.932,6.224c-0.059-0.11-0.133-0.208-0.224-0.296
				c-0.09-0.088-0.19-0.158-0.301-0.21c-0.111-0.052-0.222-0.078-0.332-0.078c-0.228,0-0.442,0.023-0.646,0.068
				c-0.205,0.046-0.406,0.101-0.607,0.165c-0.2,0.063-0.405,0.129-0.614,0.196c-0.21,0.067-0.435,0.122-0.672,0.164
				C86,6.324,85.473,6.389,84.951,6.429c-0.521,0.04-1.037,0.059-1.549,0.059c-0.273,0-0.525-0.003-0.756-0.008
				c-0.229-0.006-0.412-0.009-0.545-0.009c-0.058,0-0.154-0.012-0.287-0.037c-0.135-0.025-0.275-0.052-0.424-0.082
				c-0.147-0.031-0.291-0.058-0.428-0.083c-0.137-0.023-0.238-0.036-0.301-0.036c-0.11,0-0.243,0.024-0.396,0.073
				c-0.154,0.049-0.308,0.113-0.459,0.191c-0.15,0.079-0.291,0.166-0.418,0.26c-0.127,0.094-0.218,0.187-0.271,0.278
				c-0.104,0.176-0.183,0.348-0.231,0.515c-0.05,0.167-0.074,0.321-0.074,0.46c0,0.048,0.006,0.113,0.018,0.191
				c0.012,0.079,0.018,0.14,0.018,0.182c0,0.049-0.004,0.155-0.013,0.319s-0.022,0.358-0.04,0.583
				c-0.018,0.225-0.035,0.465-0.052,0.721c-0.019,0.255-0.034,0.495-0.048,0.72s-0.028,0.42-0.039,0.583
				c-0.012,0.165-0.02,0.268-0.026,0.31c-0.028,0.383-0.071,0.74-0.126,1.07c-0.057,0.332-0.115,0.664-0.184,0.998
				c-0.066,0.334-0.139,0.679-0.213,1.03c-0.076,0.353-0.154,0.741-0.236,1.167c-0.082,0.444-0.156,0.825-0.223,1.145
				c-0.067,0.318-0.102,0.609-0.102,0.871c0,0.334,0.028,0.611,0.083,0.834c0.056,0.222,0.136,0.397,0.24,0.529
				c0.104,0.129,0.235,0.221,0.394,0.272c0.156,0.052,0.34,0.078,0.549,0.078h0.019c0.11,0,0.235-0.015,0.375-0.046
				c0.14-0.029,0.287-0.066,0.44-0.109c0.154-0.043,0.308-0.086,0.459-0.132c0.15-0.045,0.293-0.08,0.428-0.104
				c0.139-0.031,0.354-0.064,0.646-0.104c0.291-0.04,0.627-0.085,1.012-0.138c0.385-0.051,0.801-0.104,1.248-0.158l1.346-0.164
				c0.623-0.085,1.191-0.156,1.71-0.215c0.519-0.058,1.032-0.139,1.545-0.241c0.157-0.03,0.303-0.088,0.437-0.173
				c0.135-0.086,0.25-0.178,0.346-0.278s0.172-0.201,0.227-0.301c0.055-0.101,0.083-0.179,0.083-0.232
				c0-0.157-0.026-0.305-0.079-0.442c-0.053-0.137-0.123-0.254-0.209-0.351c-0.087-0.097-0.188-0.173-0.301-0.228
				s-0.23-0.082-0.354-0.082c-0.104,0-0.209,0.012-0.311,0.037c-0.102,0.023-0.202,0.055-0.301,0.091
				c-0.1,0.036-0.196,0.075-0.293,0.114c-0.096,0.039-0.189,0.072-0.283,0.096c-0.15,0.042-0.318,0.076-0.502,0.104
				s-0.367,0.053-0.55,0.073s-0.361,0.041-0.533,0.06c-0.171,0.019-0.317,0.037-0.44,0.056c-0.232,0.036-0.449,0.065-0.649,0.091
				c-0.201,0.023-0.418,0.047-0.655,0.068c-0.234,0.021-0.5,0.045-0.794,0.072c-0.293,0.027-0.647,0.061-1.06,0.097
				c-0.157,0.019-0.325,0.034-0.502,0.05c-0.178,0.016-0.354,0.029-0.528,0.042c-0.175,0.012-0.343,0.021-0.502,0.026
				c-0.16,0.007-0.302,0.01-0.423,0.01c0.006-0.073,0.018-0.167,0.035-0.283c0.018-0.115,0.039-0.241,0.065-0.378
				c0.026-0.138,0.056-0.281,0.087-0.433c0.032-0.152,0.063-0.301,0.092-0.447c0.082-0.371,0.143-0.727,0.184-1.066
				c0.041-0.341,0.096-0.656,0.166-0.947c0.168-0.049,0.328-0.088,0.48-0.119c0.15-0.031,0.316-0.045,0.498-0.045
				c0.109,0,0.295-0.006,0.553-0.02c0.26-0.012,0.555-0.025,0.887-0.041c0.332-0.015,0.682-0.035,1.052-0.061
				c0.369-0.023,0.72-0.049,1.052-0.076c0.332-0.028,0.625-0.053,0.877-0.078c0.254-0.023,0.428-0.049,0.527-0.073
				c0.111-0.024,0.243-0.056,0.396-0.095c0.154-0.04,0.302-0.098,0.441-0.174c0.141-0.076,0.258-0.172,0.354-0.287
				c0.097-0.115,0.145-0.264,0.145-0.446c0-0.146-0.012-0.287-0.035-0.424c-0.023-0.137-0.064-0.258-0.123-0.365
				c-0.058-0.106-0.139-0.191-0.244-0.255c-0.104-0.063-0.235-0.096-0.393-0.096c-0.117,0-0.227,0.006-0.328,0.018
				c-0.102,0.012-0.201,0.032-0.297,0.06c-0.096,0.027-0.195,0.062-0.297,0.104s-0.211,0.091-0.327,0.146
				c-0.122,0.03-0.29,0.058-0.501,0.082c-0.212,0.024-0.432,0.046-0.654,0.064c-0.225,0.018-0.436,0.034-0.634,0.045
				c-0.198,0.012-0.344,0.024-0.437,0.036c-0.187,0.019-0.42,0.039-0.703,0.06c-0.282,0.021-0.566,0.032-0.852,0.032
				c-0.197,0-0.402-0.003-0.615-0.009c-0.211-0.006-0.396-0.019-0.553-0.037c0.028-0.188,0.051-0.421,0.069-0.697
				s0.035-0.563,0.053-0.861c0.017-0.298,0.033-0.589,0.048-0.875c0.014-0.285,0.03-0.529,0.047-0.729
				c0.146,0.012,0.297,0.018,0.455,0.018h1.807c0.262,0,0.582-0.009,0.96-0.027c0.378-0.019,0.796-0.05,1.252-0.096
				c0.457-0.045,0.94-0.104,1.452-0.177c0.513-0.073,1.037-0.165,1.572-0.274c0.203-0.042,0.375-0.082,0.519-0.118
				c0.144-0.037,0.29-0.094,0.44-0.174c0.076-0.036,0.148-0.099,0.219-0.186c0.07-0.088,0.133-0.184,0.188-0.288
				c0.055-0.103,0.1-0.205,0.131-0.305c0.032-0.1,0.049-0.181,0.049-0.242C90.018,6.445,89.988,6.333,89.932,6.224z"/>
		</g>
	</g>
	<path opacity="0.75" fill="#BE202E" enable-background="new    " d="M13.977,10.207c0.21-0.34,0.408-0.666,0.594-0.976
		c0.082-0.133,0.16-0.269,0.235-0.406c0.076-0.137,0.149-0.269,0.218-0.396c0.07-0.128,0.132-0.248,0.188-0.36
		c0.056-0.112,0.098-0.208,0.127-0.287c0.426-1.088,0.814-1.84,1.166-2.259c-0.027,0-0.048-0.003-0.076-0.003
		c-0.494,0-1.088,0.884-1.78,2.653c-0.029,0.079-0.072,0.175-0.127,0.287c-0.055,0.112-0.117,0.232-0.188,0.36
		c-0.07,0.127-0.143,0.259-0.218,0.396c-0.075,0.137-0.154,0.272-0.236,0.406c-0.186,0.31-0.384,0.635-0.593,0.975
		c-0.175,0.244-0.397,0.549-0.668,0.917c-0.271,0.368-0.586,0.815-0.947,1.345c-0.14,0.205-0.258,0.379-0.354,0.52
		c-0.096,0.141-0.188,0.276-0.275,0.41s-0.179,0.275-0.275,0.428c-0.096,0.152-0.22,0.344-0.371,0.575v-0.009
		c-0.297,0.462-0.569,0.871-0.816,1.226c-0.248,0.356-0.484,0.698-0.712,1.026c-0.035,0.055-0.094,0.135-0.179,0.24
		C8.606,17.382,8.52,17.49,8.433,17.6c-0.046,0.058-0.088,0.111-0.128,0.162c0.139-0.047,0.302-0.089,0.496-0.125
		c0-0.006,0.032-0.052,0.097-0.137c0.064-0.085,0.139-0.182,0.227-0.292c0.087-0.108,0.173-0.217,0.257-0.323
		c0.084-0.105,0.144-0.187,0.179-0.24c0.227-0.33,0.464-0.67,0.711-1.026c0.247-0.354,0.52-0.765,0.816-1.226V14.4
		c0.151-0.231,0.275-0.422,0.371-0.574s0.188-0.294,0.275-0.428c0.088-0.135,0.179-0.271,0.275-0.412
		c0.095-0.139,0.214-0.313,0.353-0.519c0.361-0.529,0.677-0.977,0.947-1.345S13.802,10.45,13.977,10.207z M28.373,7.968
		c0.189-0.021,0.383-0.044,0.581-0.068c0.215-0.024,0.411-0.042,0.584-0.055c0.175-0.012,0.32-0.018,0.437-0.018
		c0.39,0,0.786,0.061,1.187,0.182c0.204,0.061,0.42,0.149,0.651,0.264c0.229,0.116,0.441,0.252,0.637,0.41
		c0.195,0.159,0.356,0.335,0.484,0.529c0.128,0.195,0.192,0.398,0.192,0.611c0,0.14-0.031,0.281-0.092,0.424
		c-0.062,0.143-0.159,0.284-0.292,0.423c-0.169,0.177-0.339,0.341-0.511,0.492c-0.171,0.152-0.348,0.292-0.528,0.42
		c-0.204,0.14-0.405,0.273-0.606,0.401c-0.031,0.02-0.061,0.037-0.091,0.056c0.067-0.036,0.137-0.075,0.202-0.109
		c0.186-0.097,0.379-0.209,0.58-0.337c0.201-0.127,0.403-0.262,0.607-0.401c0.181-0.128,0.356-0.267,0.528-0.419
		c0.172-0.151,0.342-0.316,0.511-0.492c0.134-0.14,0.231-0.281,0.292-0.424s0.092-0.284,0.092-0.424
		c0-0.213-0.064-0.417-0.192-0.611c-0.128-0.194-0.29-0.371-0.485-0.529c-0.195-0.158-0.407-0.295-0.637-0.41
		c-0.23-0.115-0.447-0.204-0.651-0.265c-0.401-0.121-0.797-0.182-1.187-0.182c-0.116,0-0.262,0.006-0.436,0.019
		c-0.175,0.012-0.37,0.03-0.584,0.054c-0.198,0.025-0.392,0.047-0.581,0.069c-0.19,0.021-0.372,0.047-0.546,0.077
		c-0.082,0.013-0.146,0.021-0.192,0.027c-0.047,0.006-0.093,0.014-0.14,0.023c-0.047,0.009-0.101,0.02-0.162,0.032
		c-0.061,0.012-0.144,0.031-0.249,0.055c0.032,0.079,0.058,0.165,0.084,0.249C28.025,8.013,28.195,7.988,28.373,7.968z
		 M16.384,10.548c0.11,0.3,0.22,0.611,0.327,0.93c0.108,0.319,0.211,0.64,0.31,0.962c0.081,0.262,0.158,0.514,0.235,0.76
		c0.002,0,0.004-0.001,0.007-0.002c0.265-0.073,0.51-0.146,0.737-0.22c-0.093-0.297-0.189-0.606-0.288-0.93
		c-0.099-0.322-0.202-0.643-0.31-0.962c-0.107-0.318-0.216-0.629-0.327-0.93c-0.11-0.301-0.227-0.576-0.349-0.825
		c-0.174,0.248-0.348,0.505-0.522,0.762C16.266,10.239,16.326,10.389,16.384,10.548z M53.909,10.207
		c0.209-0.34,0.407-0.666,0.593-0.976c0.082-0.133,0.16-0.269,0.236-0.406c0.076-0.137,0.148-0.269,0.218-0.396
		c0.069-0.128,0.132-0.248,0.188-0.36c0.055-0.112,0.097-0.208,0.125-0.287c0.426-1.088,0.814-1.84,1.166-2.259
		c-0.026,0-0.047-0.003-0.076-0.003c-0.494,0-1.088,0.884-1.779,2.653c-0.029,0.079-0.072,0.175-0.127,0.287
		c-0.055,0.112-0.118,0.232-0.188,0.36c-0.07,0.127-0.144,0.259-0.219,0.396c-0.076,0.137-0.154,0.272-0.236,0.406
		c-0.187,0.31-0.383,0.635-0.593,0.975c-0.175,0.244-0.397,0.549-0.667,0.917c-0.271,0.368-0.586,0.815-0.947,1.345
		c-0.14,0.205-0.258,0.379-0.354,0.52s-0.188,0.276-0.275,0.41c-0.086,0.134-0.179,0.275-0.273,0.428
		c-0.096,0.152-0.221,0.344-0.371,0.575v-0.009c-0.297,0.462-0.568,0.871-0.816,1.226c-0.248,0.356-0.484,0.698-0.711,1.026
		c-0.035,0.055-0.095,0.135-0.179,0.24c-0.085,0.106-0.171,0.215-0.258,0.324c-0.046,0.058-0.089,0.111-0.128,0.162
		c0.139-0.047,0.303-0.089,0.497-0.125c0-0.006,0.031-0.052,0.096-0.137s0.141-0.182,0.227-0.292
		c0.088-0.108,0.174-0.217,0.258-0.323c0.084-0.105,0.145-0.187,0.18-0.24c0.227-0.33,0.464-0.67,0.711-1.026
		c0.248-0.354,0.52-0.765,0.816-1.226V14.4c0.15-0.231,0.274-0.422,0.371-0.574c0.096-0.152,0.188-0.294,0.274-0.428
		c0.087-0.135,0.179-0.271,0.274-0.412c0.097-0.139,0.215-0.313,0.354-0.519c0.361-0.529,0.677-0.977,0.947-1.345
		C53.514,10.756,53.734,10.45,53.909,10.207z M75.25,7.518c-0.123-0.067-0.234-0.138-0.336-0.214
		c-0.102-0.076-0.198-0.147-0.288-0.214c-0.09-0.066-0.185-0.1-0.284-0.1c-0.314,0-0.68,0.045-1.095,0.137
		c-0.416,0.091-0.892,0.255-1.427,0.492c-0.399,0.178-0.782,0.39-1.155,0.622c0.153-0.079,0.306-0.161,0.464-0.231
		c0.535-0.237,1.012-0.401,1.428-0.492c0.416-0.091,0.781-0.137,1.096-0.137c0.099,0,0.193,0.033,0.283,0.1s0.187,0.139,0.289,0.215
		c0.102,0.076,0.213,0.147,0.336,0.214c0.121,0.067,0.258,0.1,0.41,0.1c0.366,0,0.646-0.096,0.838-0.287
		c0.037-0.037,0.066-0.079,0.096-0.121c-0.076,0.01-0.156,0.017-0.243,0.017C75.509,7.618,75.372,7.584,75.25,7.518z M56.316,10.548
		c0.111,0.3,0.22,0.611,0.328,0.93c0.106,0.319,0.211,0.64,0.31,0.962c0.081,0.262,0.159,0.514,0.235,0.76
		c0.002,0,0.004-0.001,0.006-0.002c0.265-0.073,0.511-0.146,0.738-0.22c-0.094-0.297-0.189-0.606-0.289-0.93
		c-0.099-0.322-0.201-0.643-0.31-0.962c-0.106-0.318-0.217-0.629-0.327-0.93c-0.111-0.301-0.227-0.576-0.349-0.825
		c-0.175,0.248-0.349,0.505-0.522,0.762C56.198,10.239,56.258,10.389,56.316,10.548z M73.482,12.96
		c-0.015-0.074-0.029-0.146-0.043-0.214c-0.016-0.07-0.022-0.126-0.022-0.169c0-0.066,0.015-0.124,0.034-0.179
		c-0.48,0.061-0.725,0.249-0.725,0.57c0,0.042,0.006,0.099,0.021,0.169c0.014,0.07,0.029,0.141,0.043,0.215
		c0.016,0.072,0.029,0.146,0.043,0.217c0.016,0.074,0.021,0.138,0.021,0.192c0,0.097-0.051,0.224-0.152,0.378
		c-0.102,0.155-0.219,0.313-0.354,0.475c-0.135,0.16-0.271,0.31-0.41,0.447c-0.141,0.137-0.248,0.235-0.323,0.295
		c-0.177,0.134-0.367,0.262-0.565,0.387c0.09-0.047,0.182-0.09,0.27-0.139c0.361-0.201,0.689-0.414,0.986-0.638
		c0.076-0.061,0.185-0.159,0.323-0.296c0.14-0.137,0.276-0.286,0.41-0.447c0.134-0.16,0.251-0.318,0.353-0.474
		c0.103-0.155,0.153-0.281,0.153-0.378c0-0.055-0.007-0.119-0.022-0.191C73.512,13.105,73.497,13.033,73.482,12.96z M82.079,13.424
		c0.259-0.012,0.554-0.025,0.886-0.041c0.332-0.015,0.682-0.035,1.053-0.059c0.369-0.024,0.719-0.051,1.051-0.078
		s0.625-0.053,0.877-0.078c0.253-0.023,0.43-0.048,0.527-0.073c0.111-0.024,0.243-0.056,0.397-0.096
		c0.153-0.039,0.301-0.097,0.44-0.173c0.115-0.063,0.213-0.145,0.299-0.234c-0.016,0.005-0.032,0.012-0.049,0.016
		c-0.154,0.041-0.287,0.072-0.397,0.096c-0.099,0.024-0.274,0.049-0.528,0.073c-0.253,0.023-0.546,0.05-0.877,0.078
		c-0.332,0.026-0.683,0.053-1.052,0.078c-0.37,0.023-0.72,0.043-1.052,0.059s-0.627,0.029-0.887,0.041
		c-0.259,0.013-0.442,0.019-0.554,0.019c-0.181,0-0.346,0.015-0.498,0.046c-0.151,0.029-0.312,0.068-0.479,0.117
		c-0.021,0.08-0.035,0.166-0.051,0.25c0.106-0.013,0.217-0.021,0.338-0.021C81.635,13.441,81.818,13.436,82.079,13.424z
		 M8.81,19.255c-0.21-0.069-0.386-0.159-0.528-0.269c-0.143-0.11-0.25-0.229-0.323-0.356c-0.073-0.127-0.109-0.246-0.109-0.354
		c0-0.076,0.016-0.142,0.039-0.201c-0.193,0.046-0.353,0.099-0.476,0.158c-0.169,0.082-0.253,0.227-0.253,0.434
		c0,0.109,0.036,0.229,0.109,0.355c0.072,0.127,0.18,0.246,0.323,0.355c0.143,0.109,0.318,0.199,0.528,0.27
		c0.21,0.069,0.448,0.104,0.716,0.104c0.204,0,0.4-0.045,0.589-0.137c0.146-0.07,0.283-0.173,0.416-0.294
		c-0.102,0.025-0.207,0.039-0.314,0.039C9.258,19.359,9.019,19.325,8.81,19.255z M89.225,7.445c-0.535,0.109-1.059,0.201-1.57,0.273
		C87.143,7.79,86.657,7.85,86.2,7.896c-0.458,0.046-0.875,0.078-1.253,0.096c-0.379,0.018-0.699,0.027-0.961,0.027H82.18
		c-0.156,0-0.308-0.006-0.453-0.018C81.716,8.12,81.706,8.26,81.697,8.41h1.599c0.263,0,0.582-0.009,0.96-0.027
		c0.378-0.019,0.796-0.05,1.252-0.096c0.457-0.045,0.941-0.105,1.453-0.178c0.512-0.073,1.036-0.164,1.571-0.273
		c0.204-0.042,0.376-0.082,0.52-0.119c0.144-0.037,0.289-0.094,0.44-0.173c0.076-0.037,0.148-0.099,0.218-0.187
		c0.007-0.008,0.011-0.019,0.019-0.027C89.589,7.365,89.422,7.404,89.225,7.445z M69.268,18.471c-0.457,0.102-0.977,0.15-1.559,0.15
		s-1.13-0.082-1.646-0.246c-0.515-0.165-0.963-0.391-1.349-0.68c-0.384-0.289-0.688-0.627-0.912-1.016
		c-0.224-0.39-0.336-0.807-0.336-1.25c0-0.875,0.192-1.781,0.576-2.717c0.384-0.936,0.966-1.878,1.746-2.826
		c0.325-0.395,0.661-0.77,1.004-1.125s0.672-0.673,0.985-0.953c0.223-0.194,0.47-0.39,0.744-0.587
		c0.254-0.185,0.524-0.362,0.806-0.533c-0.216,0.113-0.427,0.229-0.634,0.354c-0.303,0.183-0.59,0.373-0.863,0.57
		C67.557,7.81,67.309,8.006,67.087,8.2c-0.313,0.28-0.644,0.597-0.985,0.953c-0.345,0.355-0.679,0.731-1.004,1.125
		c-0.779,0.948-1.361,1.891-1.746,2.828c-0.384,0.936-0.576,1.84-0.576,2.717c0,0.443,0.111,0.859,0.336,1.248
		c0.224,0.391,0.527,0.729,0.912,1.018c0.384,0.289,0.832,0.516,1.349,0.68s1.063,0.246,1.646,0.246c0.584,0,1.102-0.051,1.559-0.15
		c0.457-0.102,0.882-0.238,1.273-0.415c0.357-0.16,0.698-0.349,1.028-0.56c-0.112,0.057-0.222,0.117-0.337,0.168
		C70.148,18.232,69.725,18.371,69.268,18.471z M48.742,19.255c-0.21-0.069-0.387-0.159-0.528-0.269
		c-0.142-0.11-0.25-0.229-0.323-0.356c-0.073-0.127-0.109-0.246-0.109-0.354c0-0.076,0.016-0.142,0.039-0.201
		c-0.193,0.046-0.353,0.099-0.477,0.158c-0.169,0.082-0.253,0.227-0.253,0.434c0,0.109,0.036,0.229,0.109,0.355
		c0.073,0.127,0.18,0.246,0.323,0.355c0.142,0.109,0.319,0.199,0.528,0.27c0.209,0.069,0.448,0.104,0.717,0.104
		c0.203,0,0.399-0.045,0.588-0.137c0.146-0.07,0.283-0.173,0.416-0.294c-0.103,0.025-0.207,0.039-0.313,0.039
		C49.189,19.359,48.952,19.325,48.742,19.255z M20.785,18.968c-0.14-0.098-0.275-0.222-0.406-0.374s-0.256-0.322-0.375-0.515
		c-0.119-0.19-0.227-0.384-0.323-0.579c-0.096-0.193-0.182-0.38-0.257-0.557c-0.076-0.176-0.137-0.321-0.184-0.438
		c-0.064-0.164-0.128-0.316-0.192-0.456s-0.131-0.319-0.201-0.538c-0.041-0.121-0.071-0.212-0.092-0.273
		c-0.021-0.061-0.038-0.107-0.052-0.141c-0.014-0.035-0.026-0.062-0.035-0.084c-0.008-0.021-0.019-0.053-0.031-0.096
		c-0.116,0.055-0.241,0.087-0.375,0.096c-0.134,0.01-0.282,0.014-0.445,0.014c-0.029,0-0.079,0.012-0.148,0.033
		c-0.07,0.021-0.15,0.047-0.24,0.078c-0.09,0.029-0.183,0.062-0.279,0.096c-0.097,0.033-0.188,0.062-0.275,0.086
		c-0.279,0.072-0.582,0.143-0.908,0.21c-0.326,0.067-0.667,0.132-1.021,0.196c-0.355,0.063-0.718,0.127-1.087,0.19
		c-0.37,0.063-0.741,0.129-1.113,0.196c-0.041,0.006-0.076,0.018-0.105,0.035c-0.029,0.02-0.069,0.065-0.122,0.142
		c-0.026,0.039-0.061,0.089-0.101,0.149c0.25-0.045,0.501-0.09,0.75-0.133c0.369-0.063,0.731-0.127,1.087-0.19
		c0.354-0.064,0.695-0.13,1.021-0.196c0.326-0.066,0.629-0.137,0.908-0.209c0.087-0.023,0.179-0.054,0.275-0.087
		c0.096-0.034,0.188-0.065,0.279-0.097c0.09-0.029,0.17-0.055,0.24-0.077c0.069-0.021,0.119-0.032,0.148-0.032
		c0.163,0,0.312-0.005,0.445-0.014c0.134-0.008,0.259-0.041,0.375-0.096c0.012,0.043,0.022,0.075,0.031,0.096
		c0.009,0.021,0.021,0.049,0.035,0.082c0.014,0.035,0.032,0.082,0.052,0.142c0.021,0.062,0.051,0.152,0.091,0.274
		c0.07,0.219,0.137,0.397,0.201,0.537c0.064,0.141,0.128,0.293,0.192,0.457c0.046,0.115,0.107,0.262,0.184,0.438
		c0.075,0.176,0.162,0.361,0.257,0.557c0.096,0.193,0.203,0.387,0.323,0.578c0.119,0.191,0.244,0.363,0.375,0.516
		c0.131,0.151,0.267,0.275,0.407,0.373c0.139,0.098,0.282,0.146,0.427,0.146c0.157,0,0.304-0.029,0.441-0.091
		c0.137-0.062,0.253-0.142,0.349-0.241c0.022-0.023,0.039-0.049,0.058-0.074c-0.051,0.008-0.103,0.017-0.157,0.017
		C21.067,19.114,20.924,19.064,20.785,18.968z M87.243,18.016c-0.519,0.058-1.089,0.129-1.71,0.213l-1.344,0.164
		c-0.448,0.056-0.864,0.108-1.248,0.159c-0.385,0.052-0.723,0.099-1.012,0.138c-0.293,0.039-0.508,0.074-0.646,0.104
		c-0.135,0.024-0.276,0.06-0.428,0.104s-0.304,0.088-0.457,0.132c-0.154,0.043-0.301,0.079-0.441,0.11
		c-0.141,0.029-0.266,0.045-0.375,0.045h-0.018c-0.211,0-0.394-0.026-0.551-0.078c-0.156-0.051-0.289-0.143-0.393-0.272
		c-0.104-0.131-0.186-0.308-0.24-0.528c-0.056-0.223-0.083-0.5-0.083-0.834c0-0.262,0.033-0.552,0.101-0.871
		c0.066-0.319,0.141-0.701,0.223-1.145c0.082-0.425,0.16-0.814,0.236-1.167s0.146-0.696,0.213-1.03s0.127-0.667,0.184-0.999
		c0.055-0.331,0.098-0.688,0.127-1.071c0.005-0.042,0.014-0.146,0.025-0.31c0.013-0.165,0.025-0.359,0.041-0.583
		c0.014-0.225,0.029-0.465,0.048-0.72s0.034-0.496,0.052-0.721s0.031-0.419,0.039-0.583c0.01-0.164,0.014-0.271,0.014-0.319
		c0-0.042-0.006-0.104-0.018-0.182c-0.012-0.079-0.018-0.143-0.018-0.192c0-0.139,0.023-0.293,0.074-0.46
		c0.049-0.167,0.125-0.338,0.23-0.515c0.05-0.087,0.137-0.175,0.255-0.264c-0.086,0.035-0.171,0.073-0.256,0.117
		c-0.151,0.079-0.291,0.166-0.419,0.26c-0.129,0.094-0.219,0.188-0.271,0.278c-0.105,0.177-0.182,0.348-0.23,0.515
		c-0.051,0.167-0.075,0.321-0.075,0.461c0,0.049,0.006,0.112,0.019,0.191c0.012,0.079,0.016,0.14,0.016,0.183
		c0,0.048-0.004,0.155-0.012,0.319c-0.01,0.164-0.022,0.359-0.041,0.583c-0.017,0.225-0.035,0.465-0.052,0.72
		c-0.018,0.255-0.034,0.496-0.048,0.72c-0.016,0.225-0.027,0.419-0.039,0.583s-0.021,0.268-0.025,0.31
		c-0.029,0.383-0.071,0.74-0.127,1.071c-0.056,0.33-0.115,0.664-0.184,0.998c-0.066,0.334-0.138,0.678-0.213,1.029
		c-0.076,0.353-0.154,0.741-0.236,1.168c-0.082,0.443-0.156,0.824-0.223,1.145c-0.066,0.318-0.102,0.609-0.102,0.871
		c0,0.334,0.028,0.611,0.084,0.834c0.055,0.222,0.135,0.397,0.24,0.529c0.104,0.129,0.235,0.222,0.393,0.272
		c0.156,0.052,0.34,0.077,0.55,0.077h0.019c0.11,0,0.235-0.016,0.375-0.045c0.139-0.031,0.286-0.067,0.44-0.11
		c0.153-0.042,0.308-0.086,0.458-0.132c0.15-0.045,0.293-0.081,0.427-0.104c0.14-0.031,0.354-0.065,0.646-0.105
		s0.629-0.085,1.013-0.137c0.384-0.051,0.8-0.105,1.248-0.16l1.345-0.164c0.623-0.085,1.192-0.157,1.71-0.214
		c0.519-0.058,1.033-0.14,1.546-0.242c0.156-0.031,0.303-0.088,0.437-0.173c0.11-0.07,0.204-0.147,0.29-0.229
		c-0.012,0.004-0.023,0.008-0.036,0.01C88.275,17.877,87.762,17.958,87.243,18.016z M72.531,20.509
		c-0.137-0.067-0.248-0.161-0.332-0.282c-0.084-0.123-0.143-0.27-0.174-0.442c-0.032-0.173-0.049-0.366-0.049-0.579
		c0-0.122,0.032-0.292,0.096-0.512c0.064-0.219,0.14-0.45,0.228-0.696c0.089-0.246,0.177-0.489,0.271-0.729s0.17-0.438,0.228-0.597
		c-0.251,0.177-0.493,0.343-0.733,0.503c-0.051,0.139-0.11,0.295-0.185,0.485c-0.093,0.239-0.185,0.483-0.271,0.729
		c-0.088,0.246-0.164,0.479-0.228,0.696c-0.063,0.22-0.096,0.39-0.096,0.511c0,0.213,0.016,0.406,0.048,0.579
		s0.09,0.321,0.174,0.442s0.195,0.216,0.332,0.283c0.137,0.066,0.311,0.1,0.52,0.1c0.181,0,0.348-0.032,0.502-0.095
		c0.154-0.064,0.287-0.154,0.4-0.271c0.016-0.015,0.026-0.033,0.04-0.049c-0.081,0.016-0.165,0.023-0.252,0.023
		C72.841,20.609,72.668,20.575,72.531,20.509z M60.718,18.968c-0.14-0.098-0.274-0.222-0.405-0.374s-0.256-0.322-0.375-0.515
		s-0.228-0.384-0.324-0.579c-0.096-0.193-0.182-0.38-0.256-0.557c-0.076-0.176-0.137-0.321-0.184-0.438
		c-0.064-0.164-0.128-0.316-0.191-0.456c-0.064-0.14-0.131-0.319-0.201-0.538c-0.041-0.121-0.071-0.212-0.092-0.273
		c-0.021-0.061-0.037-0.107-0.051-0.141c-0.015-0.035-0.027-0.062-0.035-0.084c-0.008-0.021-0.02-0.053-0.03-0.096
		c-0.116,0.055-0.242,0.087-0.375,0.096c-0.134,0.01-0.282,0.014-0.445,0.014c-0.028,0-0.078,0.012-0.147,0.033
		c-0.07,0.021-0.15,0.047-0.24,0.078c-0.09,0.029-0.184,0.062-0.279,0.096c-0.096,0.033-0.188,0.062-0.275,0.086
		c-0.278,0.072-0.582,0.143-0.908,0.21c-0.325,0.067-0.666,0.132-1.021,0.196c-0.354,0.063-0.718,0.127-1.087,0.19
		c-0.37,0.063-0.74,0.129-1.113,0.196c-0.041,0.006-0.076,0.018-0.104,0.035c-0.029,0.02-0.07,0.065-0.122,0.142
		c-0.027,0.039-0.061,0.089-0.102,0.149c0.25-0.045,0.502-0.09,0.75-0.133c0.369-0.063,0.731-0.127,1.086-0.19
		c0.354-0.064,0.695-0.13,1.021-0.196s0.628-0.137,0.908-0.209c0.087-0.023,0.179-0.054,0.275-0.087
		c0.096-0.034,0.188-0.065,0.278-0.097c0.091-0.029,0.17-0.055,0.24-0.077c0.069-0.021,0.12-0.032,0.147-0.032
		c0.164,0,0.312-0.005,0.445-0.014c0.135-0.008,0.26-0.041,0.375-0.096c0.012,0.043,0.021,0.075,0.031,0.096
		c0.009,0.021,0.021,0.049,0.035,0.082c0.014,0.035,0.031,0.082,0.052,0.142c0.021,0.062,0.051,0.152,0.091,0.274
		c0.07,0.219,0.137,0.397,0.201,0.537c0.063,0.141,0.128,0.293,0.191,0.457c0.047,0.115,0.107,0.262,0.184,0.438
		s0.162,0.361,0.258,0.557c0.096,0.193,0.204,0.387,0.323,0.578c0.119,0.192,0.245,0.363,0.375,0.516
		c0.13,0.151,0.267,0.275,0.405,0.373c0.141,0.098,0.283,0.146,0.429,0.146c0.157,0,0.304-0.029,0.44-0.091s0.252-0.142,0.349-0.241
		c0.022-0.023,0.039-0.049,0.06-0.074c-0.053,0.008-0.104,0.017-0.158,0.017C61,19.114,60.857,19.064,60.718,18.968z M25.769,18.768
		c-0.244-0.22-0.393-0.475-0.445-0.767c-0.029-0.146-0.048-0.31-0.057-0.493c-0.009-0.182-0.014-0.389-0.014-0.619
		c0-0.334,0.018-0.656,0.053-0.967c0.029-0.273,0.063-0.536,0.101-0.789c0.038-0.252,0.08-0.502,0.126-0.752
		c0.029-0.109,0.053-0.213,0.07-0.311c0.018-0.096,0.034-0.198,0.048-0.305c0.014-0.106,0.03-0.222,0.048-0.346
		c0.018-0.125,0.038-0.27,0.061-0.434c0.076-0.499,0.137-0.979,0.184-1.44c0.046-0.462,0.069-0.884,0.069-1.267
		c0-0.292-0.007-0.597-0.021-0.917c-0.015-0.319-0.039-0.651-0.074-0.998c-0.186,0.055-0.343,0.096-0.471,0.123
		c-0.128,0.027-0.216,0.041-0.262,0.041c-0.309,0-0.514-0.077-0.616-0.232c-0.102-0.155-0.153-0.372-0.153-0.651
		c0-0.213,0.123-0.416,0.362-0.607c-0.089,0.042-0.179,0.078-0.267,0.123c-0.524,0.268-0.786,0.559-0.786,0.875
		c0,0.279,0.051,0.497,0.153,0.652s0.307,0.232,0.616,0.232c0.046,0,0.134-0.014,0.262-0.041c0.127-0.027,0.285-0.069,0.471-0.124
		c0.035,0.347,0.06,0.68,0.074,0.999c0.014,0.319,0.021,0.625,0.021,0.916c0,0.383-0.023,0.806-0.069,1.268s-0.108,0.942-0.184,1.44
		c-0.023,0.164-0.043,0.31-0.061,0.433c-0.018,0.125-0.033,0.24-0.048,0.348c-0.015,0.105-0.031,0.208-0.048,0.305
		c-0.018,0.098-0.041,0.201-0.07,0.311c-0.046,0.25-0.088,0.5-0.126,0.752c-0.038,0.252-0.071,0.516-0.101,0.789
		c-0.035,0.311-0.052,0.633-0.052,0.967c0,0.229,0.004,0.438,0.013,0.619c0.008,0.184,0.027,0.347,0.057,0.492
		c0.052,0.293,0.201,0.547,0.445,0.767c0.215,0.207,0.559,0.31,1.03,0.31c0.093,0,0.192-0.02,0.297-0.059
		c0.104-0.04,0.208-0.092,0.31-0.159c0.085-0.056,0.163-0.122,0.24-0.19c-0.054,0.012-0.106,0.019-0.156,0.019
		C26.327,19.077,25.984,18.975,25.769,18.768z M37.273,19.25c-0.349,0-0.693-0.075-1.03-0.225c-0.337-0.148-0.701-0.359-1.091-0.633
		c-0.192-0.134-0.437-0.312-0.733-0.533c-0.297-0.221-0.637-0.487-1.021-0.797c-0.093-0.073-0.277-0.221-0.55-0.442
		s-0.637-0.521-1.091-0.897c-0.419-0.347-0.754-0.619-1.004-0.816s-0.393-0.305-0.428-0.323c-0.07-0.03-0.138-0.047-0.205-0.051
		c-0.067-0.002-0.19-0.005-0.371-0.005h-0.122c-0.041,0-0.089,0.002-0.145,0.005c-0.055,0.004-0.128,0.008-0.218,0.014
		c-0.091,0.006-0.211,0.015-0.362,0.027c-0.355-0.261-0.532-0.617-0.532-1.067c0-0.205,0.045-0.373,0.131-0.509
		c-0.024,0.004-0.052,0.01-0.068,0.012c-0.026,0.003-0.051,0.007-0.074,0.015c-0.023,0.006-0.058,0.015-0.104,0.026
		c-0.187,0.067-0.329,0.17-0.428,0.31c-0.099,0.141-0.148,0.32-0.148,0.539c0,0.449,0.177,0.806,0.533,1.066
		c0.151-0.012,0.271-0.021,0.362-0.027c0.09-0.006,0.163-0.011,0.218-0.014s0.103-0.004,0.144-0.004h0.122
		c0.181,0,0.304,0.001,0.371,0.004c0.067,0.003,0.135,0.02,0.206,0.051c0.035,0.019,0.177,0.125,0.427,0.323
		c0.25,0.197,0.585,0.47,1.004,0.816c0.454,0.376,0.817,0.676,1.091,0.897c0.273,0.223,0.457,0.369,0.55,0.442
		c0.384,0.312,0.725,0.576,1.021,0.798c0.297,0.221,0.541,0.398,0.733,0.533c0.389,0.273,0.753,0.484,1.09,0.634
		c0.338,0.149,0.681,0.224,1.03,0.224c0.151,0,0.301-0.019,0.449-0.055c0.148-0.037,0.281-0.088,0.397-0.154
		c0.127-0.069,0.226-0.151,0.31-0.242c-0.005,0.002-0.01,0.004-0.016,0.006C37.574,19.232,37.424,19.25,37.273,19.25z
		 M44.037,18.816c-0.104-0.088-0.197-0.19-0.279-0.31c-0.081-0.118-0.146-0.245-0.192-0.378c-0.052-0.15-0.093-0.328-0.122-0.529
		c-0.029-0.199-0.053-0.404-0.07-0.615c-0.018-0.209-0.029-0.416-0.035-0.619c-0.006-0.203-0.008-0.389-0.008-0.551
		c0-0.274,0.014-0.619,0.043-1.037c0.029-0.416,0.065-0.861,0.109-1.34c0.043-0.477,0.092-0.962,0.144-1.458
		c0.053-0.495,0.104-0.96,0.153-1.395c0.049-0.435,0.093-0.813,0.13-1.135c0.038-0.322,0.063-0.55,0.074-0.684
		c-0.186,0-0.421,0.017-0.707,0.05c-0.286,0.033-0.594,0.072-0.926,0.114c-0.419,0.054-0.85,0.106-1.292,0.154
		c-0.442,0.049-0.861,0.073-1.256,0.073c-0.082,0-0.195-0.007-0.34-0.022c-0.146-0.015-0.289-0.045-0.428-0.091
		c-0.14-0.045-0.262-0.109-0.367-0.191c-0.105-0.083-0.157-0.19-0.157-0.324C38.5,8.48,38.493,8.449,38.49,8.434
		c-0.003-0.015-0.004-0.053-0.004-0.114c0-0.103,0.008-0.204,0.026-0.301c0.017-0.097,0.049-0.187,0.096-0.269
		c-0.046,0.011-0.097,0.019-0.142,0.031c-0.139,0.037-0.254,0.085-0.344,0.146c-0.091,0.061-0.159,0.132-0.205,0.214
		C37.87,8.224,37.838,8.313,37.82,8.41c-0.017,0.097-0.026,0.198-0.026,0.301c0,0.061,0.001,0.099,0.004,0.114
		c0.003,0.015,0.01,0.047,0.021,0.096c0,0.134,0.053,0.242,0.157,0.324s0.228,0.146,0.367,0.191
		c0.139,0.045,0.282,0.076,0.427,0.091c0.146,0.016,0.259,0.023,0.34,0.023c0.396,0,0.815-0.024,1.257-0.073
		c0.442-0.048,0.873-0.1,1.292-0.155c0.332-0.042,0.64-0.081,0.925-0.114s0.521-0.05,0.707-0.05
		c-0.012,0.134-0.037,0.361-0.074,0.684c-0.038,0.322-0.082,0.701-0.131,1.135c-0.05,0.435-0.101,0.9-0.153,1.395
		c-0.052,0.496-0.101,0.981-0.144,1.458s-0.08,0.924-0.109,1.34c-0.029,0.417-0.044,0.762-0.044,1.035
		c0,0.164,0.003,0.348,0.009,0.551s0.018,0.41,0.035,0.62c0.017,0.209,0.041,0.415,0.07,0.615s0.069,0.377,0.122,0.528
		c0.047,0.135,0.111,0.261,0.192,0.379c0.082,0.117,0.175,0.222,0.279,0.31c0.105,0.088,0.212,0.158,0.323,0.21
		c0.11,0.051,0.215,0.078,0.314,0.078c0.151,0,0.286-0.039,0.406-0.114c0.112-0.071,0.207-0.165,0.286-0.276
		c-0.099,0-0.205-0.026-0.314-0.078C44.25,18.977,44.142,18.905,44.037,18.816z M48.029,8.173c0.189-0.019,0.356-0.027,0.502-0.027
		c0.227,0,0.426,0.002,0.598,0.004c0.171,0.003,0.336,0.008,0.493,0.014s0.317,0.011,0.483,0.014
		c0.166,0.003,0.354,0.004,0.563,0.004c0.093,0,0.19-0.01,0.292-0.032c0.102-0.021,0.197-0.063,0.284-0.127
		c0.081-0.059,0.146-0.141,0.198-0.241c-0.027,0.002-0.057,0.009-0.084,0.009c-0.209,0-0.396-0.001-0.563-0.004
		s-0.326-0.008-0.484-0.014c-0.156-0.006-0.321-0.011-0.492-0.014c-0.172-0.002-0.373-0.004-0.598-0.004
		c-0.146,0-0.313,0.009-0.502,0.027c-0.189,0.018-0.387,0.042-0.59,0.073c-0.203,0.031-0.407,0.067-0.611,0.109
		s-0.393,0.085-0.567,0.128c-0.175,0.042-0.327,0.086-0.458,0.132c-0.131,0.046-0.226,0.086-0.284,0.124
		c-0.036,0.021-0.068,0.083-0.098,0.174c0.049-0.013,0.095-0.026,0.148-0.039c0.174-0.042,0.363-0.085,0.567-0.127
		c0.203-0.042,0.407-0.079,0.611-0.109C47.644,8.215,47.84,8.191,48.029,8.173z"/>
</g>
<line fill="none" stroke="#AD1E4F" stroke-width="2" x1="157.675" y1="758.609" x2="708.5" y2="758.609"/>
<text transform="matrix(1 0 0 1 201.332 776.0732)" font-family="'MyriadPro-It'" font-size="12">1 no MC Garden Road,1st Floor, Dumdum, W.B. Kolkata - 700 030 | www.artage.in | 9830275408</text>
</svg>
